<?xml version="1.0" encoding="UTF-8"?>
<!DOCTYPE svg PUBLIC "-//W3C//DTD SVG 1.1//EN" "http://www.w3.org/Graphics/SVG/1.1/DTD/svg11.dtd">
<svg xmlns="http://www.w3.org/2000/svg" version="1.1" width="982px" height="300px" style="shape-rendering:geometricPrecision; text-rendering:geometricPrecision; image-rendering:optimizeQuality; fill-rule:evenodd; clip-rule:evenodd" xmlns:xlink="http://www.w3.org/1999/xlink">
<g><path style="opacity:0.997" fill="#db524a" d="M 815.5,-0.5 C 826.5,-0.5 837.5,-0.5 848.5,-0.5C 860.507,1.10237 872.173,4.10237 883.5,8.5C 883.5,20.5 883.5,32.5 883.5,44.5C 848.167,44.5 812.833,44.5 777.5,44.5C 774.96,75.4776 772.626,106.478 770.5,137.5C 770.833,139.833 771.167,142.167 771.5,144.5C 775.88,147.382 780.38,150.048 785,152.5C 802.003,148.417 819.17,147.583 836.5,150C 858.72,156.576 867.553,171.41 863,194.5C 859.5,208.667 850.667,217.5 836.5,221C 818.926,224.635 801.593,223.635 784.5,218C 778.105,215.462 771.772,212.962 765.5,210.5C 765.193,220.582 765.526,230.582 766.5,240.5C 766.5,254.5 766.5,268.5 766.5,282.5C 719.435,258.428 691.935,220.094 684,167.5C 678.784,97.4628 706.951,45.9628 768.5,13C 783.671,6.32637 799.338,1.82637 815.5,-0.5 Z"/></g>
<g><path style="opacity:0.996" fill="#25a162" d="M 883.5,8.5 C 925.606,24.1046 955.106,52.7713 972,94.5C 976.295,106.685 979.462,119.018 981.5,131.5C 981.5,142.833 981.5,154.167 981.5,165.5C 974.165,216.005 948.499,254.172 904.5,280C 858.756,303.447 812.756,304.281 766.5,282.5C 766.5,268.5 766.5,254.5 766.5,240.5C 794.13,251.611 822.463,253.444 851.5,246C 879.121,237.284 894.288,218.451 897,189.5C 900.518,162.036 890.351,141.536 866.5,128C 860.023,125.381 853.357,123.381 846.5,122C 831.751,121.007 817.085,121.507 802.5,123.5C 803.533,106.808 804.866,90.1416 806.5,73.5C 832.167,73.5 857.833,73.5 883.5,73.5C 883.5,63.8333 883.5,54.1667 883.5,44.5C 883.5,32.5 883.5,20.5 883.5,8.5 Z"/></g>
<g><path style="opacity:0.922" fill="#747474" d="M 496.5,41.5 C 503.491,40.7337 507.657,43.7337 509,50.5C 510.589,57.2002 509.089,63.0335 504.5,68C 496.897,71.1147 492.397,68.6147 491,60.5C 489.99,54.9358 490.657,49.6025 493,44.5C 494.145,43.3636 495.312,42.3636 496.5,41.5 Z"/></g>
<g><path style="opacity:0.942" fill="#757575" d="M 32.5,299.5 C 24.5,299.5 16.5,299.5 8.5,299.5C 5.63235,298.36 2.63235,297.36 -0.5,296.5C -0.5,292.167 -0.5,287.833 -0.5,283.5C 5.92892,284.751 12.4289,285.418 19,285.5C 36.3185,286.689 47.3185,279.022 52,262.5C 53.4778,189.861 53.9778,117.194 53.5,44.5C 58.5,44.5 63.5,44.5 68.5,44.5C 68.6667,115.501 68.5,186.501 68,257.5C 66.6881,280.629 54.8547,294.629 32.5,299.5 Z"/></g>
<g><path style="opacity:0.926" fill="#747474" d="M 121.5,44.5 C 126.5,44.5 131.5,44.5 136.5,44.5C 136.333,90.5012 136.5,136.501 137,182.5C 141.059,219.054 161.559,237.721 198.5,238.5C 218.558,238.773 235.058,231.44 248,216.5C 253.297,208.613 256.63,199.946 258,190.5C 258.5,141.834 258.667,93.1678 258.5,44.5C 263.833,44.5 269.167,44.5 274.5,44.5C 274.667,90.1679 274.5,135.835 274,181.5C 269.732,228.093 244.065,251.426 197,251.5C 153.175,251.996 128.175,230.663 122,187.5C 121.5,139.834 121.333,92.1678 121.5,44.5 Z"/></g>
<g><path style="opacity:1" fill="#fefdfd" d="M 883.5,44.5 C 883.5,54.1667 883.5,63.8333 883.5,73.5C 857.833,73.5 832.167,73.5 806.5,73.5C 804.866,90.1416 803.533,106.808 802.5,123.5C 817.085,121.507 831.751,121.007 846.5,122C 853.357,123.381 860.023,125.381 866.5,128C 890.351,141.536 900.518,162.036 897,189.5C 894.288,218.451 879.121,237.284 851.5,246C 822.463,253.444 794.13,251.611 766.5,240.5C 765.526,230.582 765.193,220.582 765.5,210.5C 771.772,212.962 778.105,215.462 784.5,218C 801.593,223.635 818.926,224.635 836.5,221C 850.667,217.5 859.5,208.667 863,194.5C 867.553,171.41 858.72,156.576 836.5,150C 819.17,147.583 802.003,148.417 785,152.5C 780.38,150.048 775.88,147.382 771.5,144.5C 771.167,142.167 770.833,139.833 770.5,137.5C 772.626,106.478 774.96,75.4776 777.5,44.5C 812.833,44.5 848.167,44.5 883.5,44.5 Z"/></g>
<g><path style="opacity:0.934" fill="#747474" d="M 564.5,60.5 C 567.167,60.5 569.833,60.5 572.5,60.5C 572.5,72.5 572.5,84.5 572.5,96.5C 587.167,96.5 601.833,96.5 616.5,96.5C 616.5,100.833 616.5,105.167 616.5,109.5C 601.833,109.5 587.167,109.5 572.5,109.5C 572.333,144.168 572.5,178.835 573,213.5C 573.298,226.781 579.798,234.948 592.5,238C 601.883,238.495 611.216,237.995 620.5,236.5C 620.5,240.5 620.5,244.5 620.5,248.5C 606.87,252.146 593.203,252.313 579.5,249C 565.739,242.671 558.572,231.838 558,216.5C 557.5,180.835 557.333,145.168 557.5,109.5C 550.167,109.5 542.833,109.5 535.5,109.5C 535.183,106.428 535.516,103.428 536.5,100.5C 543.743,98.7522 550.743,96.4189 557.5,93.5C 559.963,82.52 562.296,71.52 564.5,60.5 Z"/></g>
<g><path style="opacity:0.938" fill="#747474" d="M 389.5,93.5 C 421.505,92.022 439.672,107.022 444,138.5C 444.5,175.165 444.667,211.832 444.5,248.5C 439.833,248.5 435.167,248.5 430.5,248.5C 430.667,215.498 430.5,182.498 430,149.5C 430.98,121.984 417.814,107.984 390.5,107.5C 359.037,107.463 342.204,123.13 340,154.5C 339.5,185.832 339.333,217.165 339.5,248.5C 334.5,248.5 329.5,248.5 324.5,248.5C 324.5,197.833 324.5,147.167 324.5,96.5C 328.833,96.5 333.167,96.5 337.5,96.5C 338.25,103.501 339.083,110.501 340,117.5C 345.408,108.867 352.908,102.701 362.5,99C 371.395,95.9215 380.395,94.0882 389.5,93.5 Z"/></g>
<g><path style="opacity:0.911" fill="#747474" d="M 492.5,96.5 C 497.5,96.5 502.5,96.5 507.5,96.5C 507.5,147.167 507.5,197.833 507.5,248.5C 502.5,248.5 497.5,248.5 492.5,248.5C 492.5,197.833 492.5,147.167 492.5,96.5 Z"/></g>
</svg>
