<?xml version="1.0" encoding="UTF-8"?>
<!DOCTYPE svg PUBLIC "-//W3C//DTD SVG 1.1//EN" "http://www.w3.org/Graphics/SVG/1.1/DTD/svg11.dtd">
<svg xmlns="http://www.w3.org/2000/svg" version="1.1" width="856px" height="768px" style="shape-rendering:geometricPrecision; text-rendering:geometricPrecision; image-rendering:optimizeQuality; fill-rule:evenodd; clip-rule:evenodd" xmlns:xlink="http://www.w3.org/1999/xlink">
<g><path style="opacity:0.999" fill="#67bc44" d="M 247.5,-0.5 C 367.167,-0.5 486.833,-0.5 606.5,-0.5C 635.129,5.22635 657.963,19.893 675,43.5C 732,142.167 789,240.833 846,339.5C 851.014,350.45 854.18,361.783 855.5,373.5C 855.5,380.167 855.5,386.833 855.5,393.5C 854.173,405.997 850.673,417.997 845,429.5C 788.333,527.5 731.667,625.5 675,723.5C 657.965,747.106 635.132,761.773 606.5,767.5C 486.833,767.5 367.167,767.5 247.5,767.5C 220.947,761.97 199.114,748.637 182,727.5C 124.919,628.336 67.5859,529.336 10,430.5C 4.758,420.276 1.258,409.609 -0.5,398.5C -0.5,388.167 -0.5,377.833 -0.5,367.5C 1.46454,356.775 4.96454,346.441 10,336.5C 67.5859,237.664 124.919,138.664 182,39.5C 199.114,18.3632 220.947,5.02989 247.5,-0.5 Z M 420.5,125.5 C 440.183,124.757 453.017,133.757 459,152.5C 459.667,227.167 459.667,301.833 459,376.5C 451.119,399.858 435.285,408.025 411.5,401C 401.074,395.993 394.574,387.827 392,376.5C 391.333,302.167 391.333,227.833 392,153.5C 396.115,138.551 405.615,129.217 420.5,125.5 Z M 301.5,173.5 C 324.249,176.078 334.749,188.745 333,211.5C 331.527,215.779 329.527,219.779 327,223.5C 265.347,270.767 241.68,332.767 256,409.5C 270.652,464.149 303.486,503.649 354.5,528C 418.88,553.453 478.88,545.786 534.5,505C 591.111,455.492 610.611,393.992 593,320.5C 585.342,295.176 573.008,272.509 556,252.5C 544.966,241.798 533.633,231.464 522,221.5C 512.083,202.327 516.249,187.161 534.5,176C 545.002,172.015 555.002,173.015 564.5,179C 626.268,226.7 658.268,289.866 660.5,368.5C 656.609,461.797 614.276,531.297 533.5,577C 461.498,612.333 389.498,612.333 317.5,577C 236.749,531.314 194.415,461.814 190.5,368.5C 192.682,288.962 225.348,225.462 288.5,178C 292.715,175.763 297.048,174.263 301.5,173.5 Z"/></g>
</svg>
