<svg version="1.1" id="Layer_1" xmlns="http://www.w3.org/2000/svg" xmlns:xlink="http://www.w3.org/1999/xlink" x="0px" y="0px"
	 width="100%" viewBox="0 0 856 768" enable-background="new 0 0 856 768" xml:space="preserve">
<path fill="#68BD45" opacity="1.000000" stroke="none" 
	d="
M0.999996,406.000000 
	C1.000000,391.979095 1.000000,377.958221 1.355853,363.702667 
	C2.132286,362.804626 2.795709,362.189087 2.937139,361.470734 
	C5.186199,350.047333 10.418062,339.967377 16.315874,330.049957 
	C26.783148,312.448730 36.812897,294.587463 47.040119,276.843323 
	C56.287956,260.798401 65.554474,244.764267 74.813881,228.726028 
	C85.545311,210.138062 96.285416,191.555115 107.007812,172.961945 
	C116.256752,156.923843 125.473320,140.867035 134.727386,124.831879 
	C146.519363,104.399078 158.216858,83.910324 170.192093,63.585339 
	C175.760086,54.135071 180.897110,44.164906 187.968369,35.922142 
	C202.312912,19.201092 220.735733,8.319720 242.250534,2.924369 
	C242.950516,2.748832 243.421997,1.662015 244.000000,0.999998 
	C367.020905,1.000000 490.041779,1.000000 613.286621,1.347153 
	C619.279846,3.815118 625.146362,5.706198 630.800232,8.099494 
	C648.319641,15.515484 663.345520,26.568645 674.242371,42.100891 
	C682.398071,53.726040 688.817871,66.571930 695.968567,78.898590 
	C705.417480,95.186829 714.838257,111.491386 724.247437,127.802582 
	C734.560242,145.680328 744.827515,163.584366 755.149231,181.456924 
	C763.506897,195.928452 771.932068,210.360977 780.298035,224.827728 
	C790.550293,242.556335 800.768494,260.304626 811.008118,278.040558 
	C820.344055,294.211304 829.645996,310.401886 839.044678,326.536102 
	C845.637146,337.853058 852.315613,349.099121 854.712830,362.268524 
	C855.015198,363.929413 856.215698,365.426819 857.000000,367.000000 
	C857.000000,378.687561 857.000000,390.375122 856.610291,402.356812 
	C855.817627,403.489075 855.331970,404.298065 855.024475,405.169830 
	C851.889893,414.056488 849.762207,423.461060 845.463806,431.739990 
	C836.937988,448.161285 827.225037,463.966553 817.991821,480.020172 
	C808.755127,496.079803 799.540283,512.152161 790.252075,528.182007 
	C778.580505,548.325134 766.791870,568.400513 755.151062,588.561340 
	C744.494995,607.016602 734.007324,625.569031 723.374878,644.038025 
	C711.599426,664.492310 699.785156,684.924561 687.908447,705.320190 
	C680.210449,718.539917 673.085083,732.089355 661.208923,742.430420 
	C647.581055,754.296936 632.446228,762.959229 614.784668,767.082092 
	C614.078979,767.246765 613.589966,768.339600 613.000000,769.000000 
	C490.312439,769.000000 367.624878,769.000000 244.678864,768.636353 
	C243.589172,767.848267 242.802261,767.250916 241.920212,767.024841 
	C223.408340,762.280945 207.417786,753.134583 193.483887,740.066711 
	C181.070312,728.424500 174.423035,713.049683 166.001892,698.825195 
	C156.489120,682.756592 147.239853,666.531860 137.894821,650.364136 
	C127.565887,632.494263 117.262146,614.609863 106.940254,596.735962 
	C97.684654,580.708435 88.414680,564.689331 79.159492,548.661621 
	C68.427895,530.077087 57.711983,511.483521 46.977074,492.900909 
	C37.636181,476.731415 28.336117,460.537903 18.908699,444.418945 
	C12.047884,432.688324 4.724109,421.190033 2.862190,407.293915 
	C2.794473,406.788544 1.645208,406.428040 0.999996,406.000000 
M217.076645,264.672821 
	C212.569473,276.062256 207.756851,287.342102 203.621292,298.864929 
	C195.964493,320.199005 193.045319,342.487976 192.129822,364.971191 
	C191.417770,382.458435 193.603851,399.842896 197.051041,416.997894 
	C201.129883,437.296387 207.566544,456.948853 217.294037,475.163757 
	C224.365829,488.405853 232.958679,500.919800 241.704803,513.164490 
	C256.241821,533.516418 274.670166,550.010254 295.289185,564.041504 
	C315.320251,577.672546 336.889099,588.085449 360.172394,595.023254 
	C380.275452,601.013489 400.826538,604.651672 421.682770,604.727966 
	C437.092957,604.784363 452.620789,603.084290 467.902740,600.845947 
	C492.368439,597.262390 515.287537,588.686951 537.128662,577.053711 
	C563.057434,563.243347 585.419067,545.176208 604.676636,522.998962 
	C617.040100,508.760986 627.866211,493.471832 635.875427,476.531464 
	C642.626038,462.253174 648.186157,447.322083 653.133484,432.304474 
	C659.061584,414.309814 661.568481,395.473602 661.775879,376.597168 
	C661.927490,362.800171 660.402405,348.938721 658.929993,335.180389 
	C656.613403,313.534241 649.866455,293.014954 640.982483,273.275177 
	C624.948547,237.648315 601.068115,208.154602 570.478210,183.853348 
	C553.503296,170.368118 535.155823,173.110062 524.128540,187.331406 
	C515.175171,198.878113 515.901001,215.733475 526.518311,225.889236 
	C532.581299,231.688583 539.544495,236.541000 545.675964,242.275635 
	C563.450378,258.899780 577.268555,278.413666 586.912415,300.777283 
	C594.682312,318.795319 599.504700,337.676117 600.814270,357.214783 
	C601.509216,367.582489 601.210876,378.196472 599.786743,388.481354 
	C597.977905,401.543945 595.667480,414.741211 591.607239,427.241821 
	C584.919739,447.831421 574.048462,466.296936 559.830017,482.888489 
	C546.128113,498.877380 530.338562,512.176086 512.042969,522.322937 
	C479.599060,540.316589 444.814026,546.993958 407.840698,543.113770 
	C389.395752,541.178040 371.764374,536.564209 355.007568,528.913940 
	C319.557098,512.729126 292.426514,487.347229 273.687225,453.191925 
	C255.428696,419.912903 249.643539,384.100555 254.186066,346.737549 
	C257.037354,323.285156 264.799561,301.183502 277.068726,280.862579 
	C288.167114,262.480713 301.778534,246.275482 319.097015,233.348373 
	C328.729156,226.158646 335.733734,217.557266 335.067535,204.473068 
	C334.462708,192.593170 328.460052,184.415802 318.458496,178.928421 
	C308.795990,173.627045 298.819153,173.870438 289.726715,179.939911 
	C274.294922,190.241043 261.175720,203.127396 249.042664,217.194260 
	C236.620636,231.596176 226.413834,247.349869 217.076645,264.672821 
M392.999390,368.444458 
	C393.133270,371.588409 392.798218,374.838135 393.479523,377.858612 
	C397.070007,393.775635 411.099457,405.621918 428.369202,405.257874 
	C445.386902,404.899200 461.074188,388.830261 461.048096,372.214783 
	C460.937378,301.735138 461.028595,231.255203 460.920288,160.775574 
	C460.914886,157.259308 460.124115,153.616898 459.028839,150.251343 
	C453.854950,134.353500 437.803680,125.175072 423.427307,127.174583 
	C404.035278,129.871689 392.924133,145.854538 392.949341,161.019196 
	C393.063751,229.832611 392.999420,298.646332 392.999390,368.444458 
z"/>
<path fill="#000000" opacity="1.000000" stroke="none" 
	d="
M857.000000,366.531342 
	C856.215698,365.426819 855.015198,363.929413 854.712830,362.268524 
	C852.315613,349.099121 845.637146,337.853058 839.044678,326.536102 
	C829.645996,310.401886 820.344055,294.211304 811.008118,278.040558 
	C800.768494,260.304626 790.550293,242.556335 780.298035,224.827728 
	C771.932068,210.360977 763.506897,195.928452 755.149231,181.456924 
	C744.827515,163.584366 734.560242,145.680328 724.247437,127.802582 
	C714.838257,111.491386 705.417480,95.186829 695.968567,78.898590 
	C688.817871,66.571930 682.398071,53.726040 674.242371,42.100891 
	C663.345520,26.568645 648.319641,15.515484 630.800232,8.099494 
	C625.146362,5.706198 619.279846,3.815118 613.755310,1.347153 
	C694.941772,1.000000 775.883545,1.000000 857.000000,1.000000 
	C857.000000,122.687508 857.000000,244.375092 857.000000,366.531342 
z"/>
<path fill="#000000" opacity="1.000000" stroke="none" 
	d="
M613.468628,769.000000 
	C613.589966,768.339600 614.078979,767.246765 614.784668,767.082092 
	C632.446228,762.959229 647.581055,754.296936 661.208923,742.430420 
	C673.085083,732.089355 680.210449,718.539917 687.908447,705.320190 
	C699.785156,684.924561 711.599426,664.492310 723.374878,644.038025 
	C734.007324,625.569031 744.494995,607.016602 755.151062,588.561340 
	C766.791870,568.400513 778.580505,548.325134 790.252075,528.182007 
	C799.540283,512.152161 808.755127,496.079803 817.991821,480.020172 
	C827.225037,463.966553 836.937988,448.161285 845.463806,431.739990 
	C849.762207,423.461060 851.889893,414.056488 855.024475,405.169830 
	C855.331970,404.298065 855.817627,403.489075 856.610291,402.825470 
	C857.000000,524.912476 857.000000,646.824890 857.000000,769.000000 
	C775.979309,769.000000 694.958313,769.000000 613.468628,769.000000 
z"/>
<path fill="#000000" opacity="1.000000" stroke="none" 
	d="
M243.531342,0.999998 
	C243.421997,1.662015 242.950516,2.748832 242.250534,2.924369 
	C220.735733,8.319720 202.312912,19.201092 187.968369,35.922142 
	C180.897110,44.164906 175.760086,54.135071 170.192093,63.585339 
	C158.216858,83.910324 146.519363,104.399078 134.727386,124.831879 
	C125.473320,140.867035 116.256752,156.923843 107.007812,172.961945 
	C96.285416,191.555115 85.545311,210.138062 74.813881,228.726028 
	C65.554474,244.764267 56.287956,260.798401 47.040119,276.843323 
	C36.812897,294.587463 26.783148,312.448730 16.315874,330.049957 
	C10.418062,339.967377 5.186199,350.047333 2.937139,361.470734 
	C2.795709,362.189087 2.132286,362.804626 1.355853,363.234009 
	C1.000000,242.420639 1.000000,121.841278 1.000000,1.000000 
	C81.687370,1.000000 162.375031,1.000000 243.531342,0.999998 
z"/>
<path fill="#000000" opacity="1.000000" stroke="none" 
	d="
M0.999996,406.468658 
	C1.645208,406.428040 2.794473,406.788544 2.862190,407.293915 
	C4.724109,421.190033 12.047884,432.688324 18.908699,444.418945 
	C28.336117,460.537903 37.636181,476.731415 46.977074,492.900909 
	C57.711983,511.483521 68.427895,530.077087 79.159492,548.661621 
	C88.414680,564.689331 97.684654,580.708435 106.940254,596.735962 
	C117.262146,614.609863 127.565887,632.494263 137.894821,650.364136 
	C147.239853,666.531860 156.489120,682.756592 166.001892,698.825195 
	C174.423035,713.049683 181.070312,728.424500 193.483887,740.066711 
	C207.417786,753.134583 223.408340,762.280945 241.920212,767.024841 
	C242.802261,767.250916 243.589172,767.848267 244.210205,768.636353 
	C163.058502,769.000000 82.116989,769.000000 1.000000,769.000000 
	C1.000000,648.312500 1.000000,527.624878 0.999996,406.468658 
z"/>
<path fill="#000000" opacity="1.000000" stroke="none" 
	d="
M217.275558,264.350098 
	C226.413834,247.349869 236.620636,231.596176 249.042664,217.194260 
	C261.175720,203.127396 274.294922,190.241043 289.726715,179.939911 
	C298.819153,173.870438 308.795990,173.627045 318.458496,178.928421 
	C328.460052,184.415802 334.462708,192.593170 335.067535,204.473068 
	C335.733734,217.557266 328.729156,226.158646 319.097015,233.348373 
	C301.778534,246.275482 288.167114,262.480713 277.068726,280.862579 
	C264.799561,301.183502 257.037354,323.285156 254.186066,346.737549 
	C249.643539,384.100555 255.428696,419.912903 273.687225,453.191925 
	C292.426514,487.347229 319.557098,512.729126 355.007568,528.913940 
	C371.764374,536.564209 389.395752,541.178040 407.840698,543.113770 
	C444.814026,546.993958 479.599060,540.316589 512.042969,522.322937 
	C530.338562,512.176086 546.128113,498.877380 559.830017,482.888489 
	C574.048462,466.296936 584.919739,447.831421 591.607239,427.241821 
	C595.667480,414.741211 597.977905,401.543945 599.786743,388.481354 
	C601.210876,378.196472 601.509216,367.582489 600.814270,357.214783 
	C599.504700,337.676117 594.682312,318.795319 586.912415,300.777283 
	C577.268555,278.413666 563.450378,258.899780 545.675964,242.275635 
	C539.544495,236.541000 532.581299,231.688583 526.518311,225.889236 
	C515.901001,215.733475 515.175171,198.878113 524.128540,187.331406 
	C535.155823,173.110062 553.503296,170.368118 570.478210,183.853348 
	C601.068115,208.154602 624.948547,237.648315 640.982483,273.275177 
	C649.866455,293.014954 656.613403,313.534241 658.929993,335.180389 
	C660.402405,348.938721 661.927490,362.800171 661.775879,376.597168 
	C661.568481,395.473602 659.061584,414.309814 653.133484,432.304474 
	C648.186157,447.322083 642.626038,462.253174 635.875427,476.531464 
	C627.866211,493.471832 617.040100,508.760986 604.676636,522.998962 
	C585.419067,545.176208 563.057434,563.243347 537.128662,577.053711 
	C515.287537,588.686951 492.368439,597.262390 467.902740,600.845947 
	C452.620789,603.084290 437.092957,604.784363 421.682770,604.727966 
	C400.826538,604.651672 380.275452,601.013489 360.172394,595.023254 
	C336.889099,588.085449 315.320251,577.672546 295.289185,564.041504 
	C274.670166,550.010254 256.241821,533.516418 241.704803,513.164490 
	C232.958679,500.919800 224.365829,488.405853 217.294037,475.163757 
	C207.566544,456.948853 201.129883,437.296387 197.051041,416.997894 
	C193.603851,399.842896 191.417770,382.458435 192.129822,364.971191 
	C193.045319,342.487976 195.964493,320.199005 203.621292,298.864929 
	C207.756851,287.342102 212.569473,276.062256 217.275558,264.350098 
z"/>
<path fill="#000000" opacity="1.000000" stroke="none" 
	d="
M392.999390,367.952209 
	C392.999420,298.646332 393.063751,229.832611 392.949341,161.019196 
	C392.924133,145.854538 404.035278,129.871689 423.427307,127.174583 
	C437.803680,125.175072 453.854950,134.353500 459.028839,150.251343 
	C460.124115,153.616898 460.914886,157.259308 460.920288,160.775574 
	C461.028595,231.255203 460.937378,301.735138 461.048096,372.214783 
	C461.074188,388.830261 445.386902,404.899200 428.369202,405.257874 
	C411.099457,405.621918 397.070007,393.775635 393.479523,377.858612 
	C392.798218,374.838135 393.133270,371.588409 392.999390,367.952209 
z"/>
</svg>